<svg width="50" height="41" viewBox="0 0 50 41" fill="none" xmlns="http://www.w3.org/2000/svg">
<path fill-rule="evenodd" clip-rule="evenodd" d="M14.5 11C17.5376 11 20 8.53757 20 5.5C20 2.46243 17.5376 0 14.5 0C11.4624 0 9 2.46243 9 5.5C9 8.53757 11.4624 11 14.5 11ZM22 5.5C22 6.76409 21.6873 7.95514 21.135 9H50V3H21.5732C21.8496 3.78195 22 4.62341 22 5.5ZM0 9H7.86505C7.31273 7.95514 7 6.76409 7 5.5C7 4.62341 7.15039 3.78195 7.42676 3H0V9Z" fill="white"/>
<path fill-rule="evenodd" clip-rule="evenodd" d="M38.5 26C41.5376 26 44 23.5376 44 20.5C44 17.4624 41.5376 15 38.5 15C35.4624 15 33 17.4624 33 20.5C33 23.5376 35.4624 26 38.5 26ZM46 20.5C46 21.7641 45.6873 22.9551 45.135 24H50V18H45.5732C45.8496 18.7819 46 19.6234 46 20.5ZM0 24H31.865C31.3127 22.9551 31 21.7641 31 20.5C31 19.6234 31.1504 18.7819 31.4268 18H0V24Z" fill="white"/>
<path fill-rule="evenodd" clip-rule="evenodd" d="M23.5 41C26.5376 41 29 38.5376 29 35.5C29 32.4624 26.5376 30 23.5 30C20.4624 30 18 32.4624 18 35.5C18 38.5376 20.4624 41 23.5 41ZM31 35.5C31 36.7641 30.6873 37.9551 30.135 39H50V33H30.5732C30.8496 33.7819 31 34.6234 31 35.5ZM0 39H16.865C16.3127 37.9551 16 36.7641 16 35.5C16 34.6234 16.1504 33.7819 16.4268 33H0V39Z" fill="white"/>
</svg>
